<svg id="Grupo_195" data-name="Grupo 195" xmlns="http://www.w3.org/2000/svg" xmlns:xlink="http://www.w3.org/1999/xlink" width="27.984" height="27.139" viewBox="0 0 27.984 27.139">
  <defs>
    <clipPath id="clip-path">
      <rect id="Rectángulo_175" data-name="Rectángulo 175" width="27.984" height="27.139" fill="#0137ff"/>
    </clipPath>
  </defs>
  <g id="Grupo_194" data-name="Grupo 194" clip-path="url(#clip-path)">
    <path id="Trazado_60" data-name="Trazado 60" d="M13.992,2.195a11.839,11.839,0,0,1,8.294,3.332,11.134,11.134,0,0,1,0,16.087,11.989,11.989,0,0,1-16.588,0,11.134,11.134,0,0,1,0-16.087,11.839,11.839,0,0,1,8.294-3.332m0-2.195A13.786,13.786,0,0,0,0,13.57a13.786,13.786,0,0,0,13.992,13.57A13.786,13.786,0,0,0,27.984,13.57,13.786,13.786,0,0,0,13.992,0" fill="#0137ff"/>
    <path id="Trazado_61" data-name="Trazado 61" d="M110.2,102.373h-5.438V97.167a.8.8,0,0,0-.809-.785h-1.76a.8.8,0,0,0-.809.785v5.206h-5.3a.8.8,0,0,0-.809.785v1.707a.8.8,0,0,0,.809.785h5.3v5.206a.8.8,0,0,0,.809.785h1.76a.8.8,0,0,0,.809-.785V105.65H110.2a.8.8,0,0,0,.809-.785v-1.707a.8.8,0,0,0-.809-.785" transform="translate(-89.22 -90.441)" fill="#0137ff"/>
  </g>
</svg>
