<svg id="Grupo_192" data-name="Grupo 192" xmlns="http://www.w3.org/2000/svg" xmlns:xlink="http://www.w3.org/1999/xlink" width="29.576" height="21.579" viewBox="0 0 29.576 21.579">
  <defs>
    <clipPath id="clip-path">
      <rect id="Rectángulo_174" data-name="Rectángulo 174" width="29.576" height="21.579" fill="#0037ff"/>
    </clipPath>
  </defs>
  <g id="Grupo_191" data-name="Grupo 191" clip-path="url(#clip-path)">
    <path id="Trazado_58" data-name="Trazado 58" d="M57.643,0a1.967,1.967,0,0,1,.867.2L45.632,12.858a1.143,1.143,0,0,1-1.6,0L31.158.2a1.967,1.967,0,0,1,.867-.2Z" transform="translate(-30.046)" fill="#0037ff"/>
    <path id="Trazado_59" data-name="Trazado 59" d="M29.576,47.152A1.981,1.981,0,0,1,27.6,49.131H1.979A1.981,1.981,0,0,1,0,47.152V29.532a1.967,1.967,0,0,1,.249-.96L13.157,41.259a2.327,2.327,0,0,0,3.263,0L29.327,28.572a1.967,1.967,0,0,1,.249.96Z" transform="translate(0 -27.552)" fill="#0037ff"/>
  </g>
</svg>
