<svg id="Grupo_206" data-name="Grupo 206" xmlns="http://www.w3.org/2000/svg" xmlns:xlink="http://www.w3.org/1999/xlink" width="30.549" height="29.135" viewBox="0 0 30.549 29.135">
  <defs>
    <clipPath id="clip-path">
      <rect id="Rectángulo_176" data-name="Rectángulo 176" width="30.549" height="29.135" fill="#0137ff"/>
    </clipPath>
  </defs>
  <g id="Grupo_205" data-name="Grupo 205" clip-path="url(#clip-path)">
    <path id="Trazado_62" data-name="Trazado 62" d="M16.01.457l4.275,8.663,9.56,1.389a.821.821,0,0,1,.455,1.4l-6.918,6.743,1.633,9.521a.821.821,0,0,1-1.191.865l-8.551-4.5-8.551,4.5a.821.821,0,0,1-1.191-.865l1.633-9.521L.249,11.908a.821.821,0,0,1,.455-1.4l9.56-1.389L14.538.457a.821.821,0,0,1,1.472,0" transform="translate(0 0.001)" fill="#0137ff"/>
  </g>
</svg>
