<svg id="Grupo_215" data-name="Grupo 215" xmlns="http://www.w3.org/2000/svg" xmlns:xlink="http://www.w3.org/1999/xlink" width="38.891" height="41.541" viewBox="0 0 38.891 41.541">
  <defs>
    <clipPath id="clip-path">
      <rect id="Rectángulo_137" data-name="Rectángulo 137" width="38.891" height="41.541" fill="none"/>
    </clipPath>
  </defs>
  <g id="Grupo_153" data-name="Grupo 153" transform="translate(0 0)" clip-path="url(#clip-path)">
    <path id="Trazado_42" data-name="Trazado 42" d="M35.486,2.33H33.348v3.4a2.255,2.255,0,1,1-4.509,0V2.33H10.054v3.4a2.256,2.256,0,1,1-4.512,0V2.33H3.405A3.4,3.4,0,0,0,0,5.735v7.047H38.891V5.735A3.4,3.4,0,0,0,35.486,2.33" transform="translate(0 2.686)" fill="#0037ff"/>
    <path id="Trazado_43" data-name="Trazado 43" d="M4.411,10.033h.153A1.539,1.539,0,0,0,6.1,8.494V1.539A1.539,1.539,0,0,0,4.564,0H4.411A1.539,1.539,0,0,0,2.872,1.539V8.494a1.539,1.539,0,0,0,1.539,1.539" transform="translate(3.31 0)" fill="#0037ff"/>
    <path id="Trazado_44" data-name="Trazado 44" d="M15.235,10.033h.153a1.54,1.54,0,0,0,1.539-1.539V1.539A1.54,1.54,0,0,0,15.388,0h-.153a1.539,1.539,0,0,0-1.541,1.539V8.494a1.539,1.539,0,0,0,1.541,1.539" transform="translate(15.782 0)" fill="#0037ff"/>
    <path id="Trazado_45" data-name="Trazado 45" d="M36.973,29.439a1.487,1.487,0,0,1-1.487,1.485H3.4A1.486,1.486,0,0,1,1.92,29.439V7.548H0V29.439a3.4,3.4,0,0,0,3.4,3.4H35.486a3.4,3.4,0,0,0,3.407-3.4V7.548h-1.92Z" transform="translate(0 8.699)" fill="#0037ff"/>
    <path id="Trazado_46" data-name="Trazado 46" d="M4.134,13.708H8.183a1.669,1.669,0,0,0,1.67-1.67V10.274A1.669,1.669,0,0,0,8.183,8.6H4.134a1.671,1.671,0,0,0-1.67,1.67v1.763a1.671,1.671,0,0,0,1.67,1.67" transform="translate(2.84 9.916)" fill="#0037ff"/>
    <path id="Trazado_47" data-name="Trazado 47" d="M8.987,13.708h4.049a1.669,1.669,0,0,0,1.67-1.67V10.274a1.669,1.669,0,0,0-1.67-1.67H8.987a1.671,1.671,0,0,0-1.67,1.67v1.763a1.671,1.671,0,0,0,1.67,1.67" transform="translate(8.433 9.916)" fill="#0037ff"/>
    <path id="Trazado_48" data-name="Trazado 48" d="M13.841,13.708H17.89a1.669,1.669,0,0,0,1.67-1.67V10.274A1.669,1.669,0,0,0,17.89,8.6H13.841a1.671,1.671,0,0,0-1.67,1.67v1.763a1.671,1.671,0,0,0,1.67,1.67" transform="translate(14.027 9.916)" fill="#0037ff"/>
    <rect id="Rectángulo_131" data-name="Rectángulo 131" width="7.389" height="5.104" rx="0.776" transform="translate(5.304 25.209)" fill="#0037ff"/>
    <rect id="Rectángulo_132" data-name="Rectángulo 132" width="7.389" height="5.104" rx="0.776" transform="translate(15.751 25.209)" fill="#0037ff"/>
    <rect id="Rectángulo_133" data-name="Rectángulo 133" width="7.389" height="5.104" rx="0.776" transform="translate(26.198 25.209)" fill="#0037ff"/>
    <rect id="Rectángulo_134" data-name="Rectángulo 134" width="7.389" height="5.104" rx="0.776" transform="translate(5.304 31.897)" fill="#0037ff"/>
    <rect id="Rectángulo_135" data-name="Rectángulo 135" width="7.389" height="5.104" rx="0.776" transform="translate(15.751 31.897)" fill="#0037ff"/>
    <rect id="Rectángulo_136" data-name="Rectángulo 136" width="7.389" height="5.104" rx="0.776" transform="translate(26.198 31.897)" fill="#0037ff"/>
  </g>
</svg>
