<svg id="Grupo_180" data-name="Grupo 180" xmlns="http://www.w3.org/2000/svg" xmlns:xlink="http://www.w3.org/1999/xlink" width="29.833" height="29.833" viewBox="0 0 29.833 29.833">
  <defs>
    <clipPath id="clip-path">
      <rect id="Rectángulo_171" data-name="Rectángulo 171" width="29.833" height="29.833" fill="none"/>
    </clipPath>
  </defs>
  <g id="Grupo_179" data-name="Grupo 179" clip-path="url(#clip-path)">
    <path id="Trazado_51" data-name="Trazado 51" d="M29.276,4.577,25.255.556a1.9,1.9,0,0,0-2.686,0L1.914,21.211l-1.9,7.873a.606.606,0,0,0,.587.748.614.614,0,0,0,.144-.017l7.873-1.9L29.276,7.263a1.9,1.9,0,0,0,0-2.686M2.344,27.489a3.056,3.056,0,0,0-1.017-.672l.979-4.063a2.337,2.337,0,0,0,1.534.9,3,3,0,0,0,2.344,2.344,2.337,2.337,0,0,0,.9,1.534l-4.064.979a3.054,3.054,0,0,0-.672-1.017m1.7-4.56A1.582,1.582,0,0,1,2.8,22.142a1.6,1.6,0,0,1-.171-.593l15.8-15.8,1.4,1.4Zm2.335,2.345a2.257,2.257,0,0,1-1.815-1.815L20.346,7.672l1.815,1.815ZM18.949,5.226,20.7,3.472,26.36,9.13l-1.753,1.753ZM1.151,27.548a2.313,2.313,0,0,1,1.134,1.134l-1.494.36Zm7.133-.341A1.488,1.488,0,0,1,6.9,25.793L22.686,10.011l1.4,1.4ZM28.752,6.739,26.885,8.606,21.227,2.948l1.867-1.867a1.157,1.157,0,0,1,1.637,0L28.752,5.1a1.157,1.157,0,0,1,0,1.637" transform="translate(0)" fill="#0037ff"/>
  </g>
</svg>
